<svg xmlns="http://www.w3.org/2000/svg" width="64" height="64" viewBox="0 0 16.933 16.933" id="megaphone"><path d="m 9.7812283,0.53124418 c -0.115384,0.008206 -0.2304184,0.041635 -0.3364086,0.1028372 L 8.9864569,0.89866758 C 8.6096016,1.1162751 8.4779571,1.6075134 8.6955229,1.9844011 l 4.7624241,8.2497159 c 0.217567,0.376889 0.707816,0.506998 1.084672,0.289391 l 0.458362,-0.264586 c 0.376855,-0.217609 0.507983,-0.7067796 0.290417,-1.0836676 L 13.691521,6.4038173 c 0.584764,-0.4840954 0.756476,-1.3364419 0.36483,-2.0148857 -0.218395,-0.3783237 -0.57182,-0.6331555 -0.964784,-0.7384642 -0.147362,-0.039491 -0.300288,-0.057935 -0.453712,-0.054261 -0.171563,0.00411 -0.343351,0.038524 -0.509521,0.1002533 l -1.59936,-2.77040332 c -0.13598,-0.2355548 -0.377917,-0.3759526 -0.6325097,-0.3948122 -0.03819,-0.00283 -0.07678,-0.00274 -0.115236,0 z M 12.998039,2.6386315 c -0.186023,0.3082709 0.284232,0.5804746 0.45888,0.2656196 L 13.986077,1.988535 c 0.1063,-0.1748546 -0.0176,-0.3990355 -0.222208,-0.402047 -0.0098,-3.1e-5 -0.01967,4.868e-4 -0.02945,0.00155 -0.08712,0.00794 -0.16469,0.058427 -0.207221,0.1348771 z M 3.4721514,7.0079213 c 0.1366374,0.035798 0.2532967,0.1247363 0.3240061,0.2470161 l 2.6468252,4.5837496 c 0.1461407,0.253151 0.059377,0.576846 -0.1937835,0.722961 l -1.417979,0.818563 0.8324942,1.443339 c 0.1322885,0.229161 0.2324817,0.3335 0.4800666,0.476462 l 1.6034943,0.927602 C 8.3780258,16.591828 9.1896735,16.37427 9.553855,15.7434 9.9180463,15.112514 9.7003393,14.298883 9.0696546,13.934706 L 7.7746637,13.186423 7.1359529,12.077952 13.030073,10.544695 c -0.01017,-0.01598 -0.02144,-0.03099 -0.03101,-0.04754 L 8.2366433,2.247437 C 8.2272533,2.231177 8.2199353,2.214324 8.2113223,2.197827 Z M 15.716689,3.195193 c -0.05031,-7.408e-4 -0.09979,0.012888 -0.142625,0.039274 l -0.917759,0.5271058 c -0.306262,0.1770795 -0.04065,0.636488 0.265613,0.4594085 L 15.83761,3.6912921 C 16.073525,3.5608694 15.986157,3.2024246 15.716689,3.195193 Z m -0.641295,2.6251911 c -0.360683,-0.008 -0.360683,0.537175 0,0.5291724 h 1.058317 c 0.360683,0.008 0.360683,-0.537175 0,-0.5291724 z M 3.3388284,7.5210738 1.5058939,8.5799353 C 0.99814037,8.8731282 0.82569197,9.5175154 1.1188435,10.025341 l 1.5874752,2.75025 C 2.99947,13.283414 3.6439324,13.45636 4.1516855,13.163168 L 5.9846201,12.104307 C 5.5877536,11.416817 3.7356938,8.2085613 3.3388284,7.5210738 Z M 2.9342081,8.7034433 c 0.2795187,-0.016544 0.393236,0.3524641 0.1508927,0.4929981 L 2.1678586,9.7245804 C 1.8664439,9.8977164 1.5954667,9.4547634 1.9022459,9.2677564 L 2.8184547,8.7385837 c 0.036186,-0.021691 0.07365,-0.03245 0.1157534,-0.03514 z m 0.531742,0.9157161 c 0.2766618,-0.01387 0.3908983,0.349266 0.1472755,0.4940326 l -0.915692,0.529689 C 2.3915525,10.819966 2.1259389,10.360558 2.431921,10.183473 L 3.3476131,9.6543004 c 0.036186,-0.02169 0.076235,-0.03245 0.118337,-0.035141 z m 0.676434,1.4102656 -0.9156922,0.529173 C 2.9206186,11.735657 2.6550054,11.276767 2.9610793,11.099706 l 0.9156922,-0.529172 c 0.043618,-0.02594 0.091887,-0.03694 0.1426245,-0.03514 0.2633532,0.0091 0.3569038,0.356329 0.1229881,0.494031 z M 0.92454307,10.747786 C 0.54817629,10.965577 0.41668298,11.45426 0.63412613,11.830935 l 0.26406244,0.459409 C 1.1157543,12.667231 1.604971,12.798893 1.9826014,12.580785 Z m 3.74751623,1.197872 -0.916209,0.529173 C 3.4482338,12.646939 3.1865543,12.198293 3.4902378,12.017489 l 0.9162086,-0.529172 c 0.036186,-0.0217 0.075718,-0.03347 0.1178203,-0.03617 0.2774508,-0.01448 0.3891002,0.354012 0.1477926,0.493513 z"></path></svg>