<svg xmlns="http://www.w3.org/2000/svg" width="32" height="32" id="tool-support"><path fill="none" d="M0 0h32v32H0z"></path><path d="M23.778 24.777a.997.997 0 0 1-.707-.293l-5.778-5.777a.999.999 0 1 1 1.414-1.414l5.778 5.777a.999.999 0 0 1-.707 1.707zM14 15a.997.997 0 0 1-.707-.293L7.515 8.93a.999.999 0 1 1 1.414-1.414l5.778 5.777A.999.999 0 0 1 14 15z"></path><path d="M5.111 10.509A5.381 5.381 0 0 1 1.293 8.93a.999.999 0 1 1 1.414-1.414 3.406 3.406 0 0 0 4.808 0c.642-.643.996-1.496.996-2.405s-.354-1.762-.996-2.404a.999.999 0 1 1 1.414-1.414 5.363 5.363 0 0 1 1.582 3.818 5.365 5.365 0 0 1-1.582 3.818 5.382 5.382 0 0 1-3.818 1.58zM23.778 31a.997.997 0 0 1-.707-.293 5.363 5.363 0 0 1-1.582-3.818c0-1.442.562-2.798 1.582-3.818a5.406 5.406 0 0 1 7.636 0 .999.999 0 1 1-1.414 1.414 3.406 3.406 0 0 0-4.808 0c-.642.643-.996 1.496-.996 2.404s.354 1.763.996 2.404A.999.999 0 0 1 23.778 31zm-6.625-11.777a1.99 1.99 0 0 1-1.411-.584l-2.38-2.381a1.998 1.998 0 0 1 0-2.822L25.213 1.585c.752-.754 2.068-.755 2.822.001l2.38 2.379a1.998 1.998 0 0 1 0 2.822L18.564 18.639c-.389.388-.9.584-1.411.584zm.003-1.998-.707.707.707-.707c.001 0 .001 0 0 0zm9.465-14.226L14.776 14.85l2.378 2.372L29.001 5.373l-2.38-2.374z"></path><path d="M2 31a.999.999 0 0 1-.707-1.707l13.259-13.259a.999.999 0 1 1 1.414 1.414L2.707 30.707A.997.997 0 0 1 2 31z"></path></svg>